<mxfile host="app.diagrams.net" agent="Mozilla/5.0 (Windows NT 10.0; Win64; x64) AppleWebKit/537.36 (KHTML, like Gecko) Chrome/127.0.0.0 Safari/537.36" version="24.7.6">
  <diagram name="Página-1" id="5qHUlNTbVba5Hz_TQkCc">
    <mxGraphModel dx="880" dy="468" grid="1" gridSize="10" guides="1" tooltips="1" connect="1" arrows="1" fold="1" page="1" pageScale="1" pageWidth="827" pageHeight="1169" math="0" shadow="0">
      <root>
        <mxCell id="0" />
        <mxCell id="1" parent="0" />
        <mxCell id="ERD1yBvFFCyqb6FYL1CN-1" value="Entrada do dado" style="ellipse;whiteSpace=wrap;html=1;aspect=fixed;strokeColor=#FFFF66;" vertex="1" parent="1">
          <mxGeometry x="340" y="50" width="110" height="110" as="geometry" />
        </mxCell>
        <mxCell id="ERD1yBvFFCyqb6FYL1CN-2" value="&lt;font color=&quot;#000099&quot;&gt;Não Febril&lt;/font&gt;&lt;div&gt;&lt;font color=&quot;#000099&quot;&gt;Abaixo de 38°c&lt;/font&gt;&lt;/div&gt;" style="ellipse;whiteSpace=wrap;html=1;aspect=fixed;strokeColor=#000099;" vertex="1" parent="1">
          <mxGeometry x="220" y="220" width="120" height="120" as="geometry" />
        </mxCell>
        <mxCell id="ERD1yBvFFCyqb6FYL1CN-3" value="&lt;font color=&quot;#660000&quot;&gt;Febril&lt;/font&gt;&lt;div&gt;&lt;font color=&quot;#660000&quot;&gt;Acima de 38°c&lt;/font&gt;&lt;/div&gt;" style="ellipse;whiteSpace=wrap;html=1;aspect=fixed;strokeColor=#660000;" vertex="1" parent="1">
          <mxGeometry x="460" y="220" width="120" height="120" as="geometry" />
        </mxCell>
        <mxCell id="ERD1yBvFFCyqb6FYL1CN-4" value="" style="endArrow=classic;html=1;rounded=0;exitX=0.95;exitY=0.8;exitDx=0;exitDy=0;exitPerimeter=0;" edge="1" parent="1" source="ERD1yBvFFCyqb6FYL1CN-1" target="ERD1yBvFFCyqb6FYL1CN-3">
          <mxGeometry width="50" height="50" relative="1" as="geometry">
            <mxPoint x="390" y="270" as="sourcePoint" />
            <mxPoint x="440" y="220" as="targetPoint" />
          </mxGeometry>
        </mxCell>
        <mxCell id="ERD1yBvFFCyqb6FYL1CN-5" value="" style="endArrow=classic;html=1;rounded=0;exitX=0.075;exitY=0.838;exitDx=0;exitDy=0;exitPerimeter=0;entryX=0.708;entryY=0.017;entryDx=0;entryDy=0;entryPerimeter=0;" edge="1" parent="1" source="ERD1yBvFFCyqb6FYL1CN-1" target="ERD1yBvFFCyqb6FYL1CN-2">
          <mxGeometry width="50" height="50" relative="1" as="geometry">
            <mxPoint x="390" y="270" as="sourcePoint" />
            <mxPoint x="440" y="220" as="targetPoint" />
          </mxGeometry>
        </mxCell>
      </root>
    </mxGraphModel>
  </diagram>
</mxfile>
